<svg width="300" height="300" viewBox="0 0 300 300" fill="none" xmlns="http://www.w3.org/2000/svg">
<g clip-path="url(#clip0_16_2)">
<rect width="300" height="300" fill="white"/>
<rect width="300" height="300" fill="white"/>
<path d="M137.813 262.5V235.625C126.771 233.125 117.24 228.333 109.219 221.25C101.198 214.167 95.3125 204.167 91.5625 191.25L114.688 181.875C117.813 191.875 122.448 199.479 128.594 204.687C134.74 209.896 142.813 212.5 152.813 212.5C161.354 212.5 168.594 210.573 174.531 206.719C180.469 202.865 183.438 196.875 183.438 188.75C183.438 181.458 181.146 175.677 176.563 171.406C171.979 167.135 161.354 162.292 144.688 156.875C126.771 151.25 114.479 144.531 107.813 136.719C101.146 128.906 97.8125 119.375 97.8125 108.125C97.8125 94.5833 102.188 84.0625 110.938 76.5625C119.688 69.0625 128.646 64.7917 137.813 63.75V37.5H162.813V63.75C173.229 65.4167 181.823 69.2187 188.594 75.1562C195.365 81.0937 200.313 88.3333 203.438 96.875L180.313 106.875C177.813 100.208 174.271 95.2083 169.688 91.875C165.104 88.5417 158.854 86.875 150.938 86.875C141.771 86.875 134.792 88.9062 130 92.9687C125.208 97.0312 122.813 102.083 122.813 108.125C122.813 115 125.938 120.417 132.188 124.375C138.438 128.333 149.271 132.5 164.688 136.875C179.063 141.042 189.948 147.656 197.344 156.719C204.74 165.781 208.438 176.25 208.438 188.125C208.438 202.917 204.063 214.167 195.313 221.875C186.563 229.583 175.729 234.375 162.813 236.25V262.5H137.813Z" fill="#282828"/>
</g>
<defs>
<clipPath id="clip0_16_2">
<rect width="300" height="300" fill="white"/>
</clipPath>
</defs>
</svg>
