<svg width="142" height="47" viewBox="0 0 142 47" fill="none" xmlns="http://www.w3.org/2000/svg">
<path d="M6.832 12.4C7.30133 10.48 7.96267 8.77333 8.816 7.28C9.712 5.78666 10.7787 4.54933 12.016 3.568C13.2533 2.58666 14.6613 1.84 16.24 1.328C17.8613 0.815998 19.6107 0.559998 21.488 0.559998C23.408 0.559998 25.0507 0.837331 26.416 1.392C27.7813 1.904 28.848 2.672 29.616 3.696C30.4267 4.67733 30.9173 5.91467 31.088 7.408C31.2587 8.85867 31.1093 10.5227 30.64 12.4L25.072 34.736C24.56 36.656 23.856 38.3627 22.96 39.856C22.064 41.3067 20.976 42.544 19.696 43.568C18.416 44.5493 16.944 45.3173 15.28 45.872C13.6587 46.384 11.888 46.64 9.968 46.64C8.09067 46.64 6.49067 46.384 5.168 45.872C3.84533 45.36 2.8 44.6133 2.032 43.632C1.30667 42.608 0.858667 41.3493 0.688 39.856C0.56 38.3627 0.752 36.656 1.264 34.736L6.832 12.4ZM18.544 11.568L12.528 35.632C12.4853 35.8027 12.4427 35.952 12.4 36.08C12.4 36.208 12.4 36.3147 12.4 36.4C12.4427 36.4853 12.4853 36.5493 12.528 36.592C12.5707 36.6347 12.6133 36.656 12.656 36.656C12.7413 36.656 12.8053 36.6347 12.848 36.592C12.8907 36.5493 12.9333 36.4853 12.976 36.4C13.0613 36.3147 13.1253 36.208 13.168 36.08C13.2107 35.952 13.2533 35.8027 13.296 35.632L19.312 11.568C19.3547 11.3547 19.376 11.184 19.376 11.056C19.4187 10.928 19.4187 10.8427 19.376 10.8C19.376 10.7147 19.3547 10.6507 19.312 10.608C19.2693 10.5653 19.2267 10.544 19.184 10.544C19.0987 10.544 19.0347 10.5653 18.992 10.608C18.9493 10.6507 18.8853 10.7147 18.8 10.8C18.7573 10.8427 18.7147 10.928 18.672 11.056C18.6293 11.184 18.5867 11.3547 18.544 11.568ZM47.521 1.2H59.041L47.905 46H35.553L38.625 21.68H37.985L34.593 46H23.073L34.209 1.2H46.561L43.681 25.776H44.321L47.521 1.2ZM74.0405 11.184H68.9205L67.3845 17.392H72.5045L70.0085 27.376H64.8885L62.7765 36.016H67.8965L65.4005 46H48.7605L59.8965 1.2H76.5365L74.0405 11.184ZM77.3965 1.2H89.1725C93.0125 1.2 95.7218 2.18133 97.3005 4.144C98.9218 6.064 99.2418 9.072 98.2605 13.168L98.0045 14.128C97.5778 15.8347 96.9805 17.3493 96.2125 18.672C95.4872 19.9947 94.6765 21.104 93.7805 22C92.9272 22.8533 92.0525 23.5147 91.1565 23.984C90.3032 24.4107 89.5352 24.624 88.8525 24.624L88.6605 25.392C89.3432 25.392 90.0045 25.648 90.6445 26.16C91.2845 26.672 91.7965 27.3973 92.1805 28.336C92.6072 29.2747 92.8632 30.4267 92.9485 31.792C93.0338 33.1573 92.8632 34.6933 92.4365 36.4L92.3085 36.912C91.8818 38.6187 91.5192 40.2187 91.2205 41.712C90.9218 43.1627 90.7512 44.592 90.7085 46H79.1885C79.2312 44.592 79.4018 43.1413 79.7005 41.648C79.9992 40.1547 80.3832 38.5333 80.8525 36.784L82.2605 31.024C82.3885 30.5547 82.4312 30.2773 82.3885 30.192C82.3885 30.064 82.2178 30 81.8765 30H81.7485L77.7805 46H66.2605L77.3965 1.2ZM86.4205 11.184L84.2445 20.016H84.3725C84.7565 20.016 84.9698 19.9307 85.0125 19.76C85.0978 19.5467 85.1832 19.2907 85.2685 18.992L86.9965 12.144C87.0818 11.7173 87.1032 11.4613 87.0605 11.376C87.0605 11.248 86.8898 11.184 86.5485 11.184H86.4205ZM116.166 11.184H111.046L109.51 17.392H114.63L112.134 27.376H107.014L104.902 36.016H110.022L107.526 46H90.8855L102.022 1.2H118.662L116.166 11.184ZM119.522 1.2H131.298C135.138 1.2 137.783 2.50133 139.234 5.104C140.684 7.664 140.706 11.76 139.298 17.392L139.106 18.16C138.423 20.8907 137.591 23.1947 136.61 25.072C135.671 26.9493 134.562 28.464 133.282 29.616C132.002 30.768 130.53 31.6 128.866 32.112C127.202 32.5813 125.346 32.816 123.298 32.816H123.17L119.906 46H108.386L119.522 1.2ZM128.546 11.184L125.666 22.832H125.794C126.178 22.832 126.391 22.7467 126.434 22.576C126.519 22.3627 126.604 22.1067 126.69 21.808L129.058 12.208C129.186 11.7813 129.228 11.504 129.186 11.376C129.186 11.248 129.015 11.184 128.674 11.184H128.546Z" fill="#202734"/>
</svg>
