<svg width="300" height="300" viewBox="0 0 300 300" fill="none" xmlns="http://www.w3.org/2000/svg">
<g clip-path="url(#clip0_9_2)">
<rect width="300" height="300" fill="white"/>
<rect x="-76.7513" y="-99" width="259.159" height="149.841" rx="30" transform="rotate(20 -76.7513 -99)" fill="#FBBEB5"/>
<rect x="185.046" y="-4.17163" width="259.159" height="149.841" rx="30" transform="rotate(20 185.046 -4.17163)" fill="#D4BEEF"/>
<rect x="-72.2285" y="77.8169" width="256.046" height="149.841" rx="30" transform="rotate(20 -72.2285 77.8169)" fill="#C1E6EF"/>
<rect x="188.396" y="170.693" width="256.046" height="149.841" rx="30" transform="rotate(20 188.396 170.693)" fill="#FBE4B5"/>
<path d="M41.2969 133.008H48.9873L55.623 153.948C55.7402 154.285 55.8354 154.622 55.9087 154.958C55.9966 155.281 56.0845 155.618 56.1724 155.969H56.3042C56.3774 155.618 56.458 155.266 56.5459 154.915C56.6484 154.563 56.751 154.241 56.8535 153.948L63.5332 133.008H70.6523L60.0396 165.154H51.9316L41.2969 133.008ZM72.2563 165V143.599H79.4634V165H72.2563ZM71.8169 136.765C71.8169 135.725 72.1685 134.854 72.8716 134.15C73.5747 133.447 74.5781 133.096 75.8818 133.096C77.1855 133.096 78.1816 133.447 78.8701 134.15C79.5732 134.839 79.9248 135.71 79.9248 136.765C79.9248 137.805 79.5659 138.691 78.8481 139.424C78.145 140.142 77.1416 140.5 75.8379 140.5C74.5488 140.5 73.5527 140.142 72.8496 139.424C72.1611 138.691 71.8169 137.805 71.8169 136.765ZM81.5728 143.599H88.582L92.7568 155.552C92.9033 155.991 93.0278 156.409 93.1304 156.804C93.2476 157.2 93.3354 157.551 93.394 157.859H93.5039C93.5625 157.551 93.6431 157.2 93.7456 156.804C93.8628 156.409 93.9873 155.991 94.1191 155.552L98.4038 143.599H104.798L96.5801 165H89.8564L81.5728 143.599ZM105.018 158.782C105.018 156.541 105.896 154.797 107.654 153.552C109.427 152.307 111.727 151.685 114.554 151.685H119.454V150.388C119.454 149.421 119.212 148.667 118.729 148.125C118.26 147.583 117.454 147.312 116.312 147.312C115.184 147.312 114.349 147.546 113.807 148.015C113.279 148.469 113.016 149.077 113.016 149.839V150.256L106.336 150.234V149.773C106.336 147.781 107.273 146.162 109.148 144.917C111.038 143.657 113.572 143.027 116.751 143.027C119.959 143.027 122.398 143.635 124.068 144.851C125.738 146.052 126.573 147.964 126.573 150.586V160.122C126.573 161.001 126.646 161.836 126.792 162.627C126.954 163.418 127.181 164.099 127.474 164.67V165H120.464C120.259 164.648 120.083 164.216 119.937 163.704C119.805 163.191 119.717 162.671 119.673 162.144C119.19 162.964 118.326 163.704 117.081 164.363C115.85 165.022 114.305 165.352 112.444 165.352C110.218 165.352 108.423 164.802 107.061 163.704C105.699 162.59 105.018 160.95 105.018 158.782ZM112.071 158.232C112.071 159.141 112.334 159.851 112.862 160.364C113.389 160.862 114.18 161.111 115.235 161.111C116.363 161.111 117.344 160.73 118.179 159.968C119.029 159.192 119.454 158.298 119.454 157.288V155.486H116.377C114.913 155.486 113.829 155.706 113.125 156.145C112.422 156.584 112.071 157.28 112.071 158.232ZM131.407 165V133.008H141.36L148.04 152.322C148.201 152.82 148.34 153.303 148.458 153.772C148.589 154.241 148.707 154.746 148.809 155.288H148.919C149.021 154.746 149.139 154.241 149.271 153.772C149.402 153.303 149.549 152.82 149.71 152.322L156.368 133.008H166.409V165H159.158V145.576C159.158 145.078 159.158 144.529 159.158 143.928C159.173 143.313 159.209 142.764 159.268 142.28H159.114C159.026 142.778 158.909 143.328 158.763 143.928C158.616 144.514 158.47 145.063 158.323 145.576L151.797 165H145.381L138.833 145.576C138.687 145.078 138.533 144.507 138.372 143.862C138.226 143.203 138.123 142.676 138.064 142.28H137.911C137.94 142.676 137.962 143.203 137.977 143.862C138.006 144.507 138.021 145.078 138.021 145.576V165H131.407ZM170.079 154.607V153.904C170.079 150.579 171.119 147.927 173.199 145.95C175.279 143.958 178.025 142.961 181.438 142.961C184.808 142.961 187.422 143.914 189.283 145.818C191.158 147.708 192.095 150.3 192.095 153.596V155.75H174.231V151.904H185.152V151.619C185.167 150.564 184.852 149.685 184.207 148.982C183.577 148.279 182.64 147.927 181.395 147.927C180.003 147.927 178.948 148.433 178.23 149.443C177.513 150.454 177.154 151.736 177.154 153.289V154.783C177.154 156.584 177.542 157.998 178.318 159.023C179.095 160.034 180.23 160.54 181.724 160.54C182.793 160.54 183.694 160.305 184.427 159.836C185.174 159.353 185.767 158.752 186.207 158.035L191.832 160.21C191.143 161.851 189.964 163.154 188.294 164.121C186.624 165.088 184.463 165.571 181.812 165.571C178.106 165.571 175.22 164.583 173.155 162.605C171.104 160.627 170.079 157.961 170.079 154.607ZM195.325 165V143.599H202.247L202.312 146.323H202.4C202.942 145.356 203.785 144.58 204.927 143.994C206.084 143.394 207.454 143.093 209.036 143.093C211.233 143.093 213.021 143.708 214.397 144.939C215.774 146.169 216.463 148.25 216.463 151.179V165H209.344V151.926C209.344 150.652 209.073 149.751 208.531 149.224C207.989 148.696 207.227 148.433 206.246 148.433C205.425 148.433 204.671 148.682 203.982 149.18C203.309 149.663 202.796 150.315 202.444 151.135V165H195.325ZM218.682 148.74V143.599H233.338V148.74H218.682ZM221.956 158.43V145.181L222.088 144.785V137.402H228.965V157.244C228.965 158.547 229.156 159.404 229.537 159.814C229.917 160.21 230.496 160.408 231.272 160.408C231.639 160.408 231.99 160.378 232.327 160.32C232.679 160.247 233.008 160.151 233.316 160.034V164.912C232.935 165.059 232.364 165.198 231.602 165.33C230.84 165.461 229.925 165.527 228.855 165.527C226.688 165.527 224.996 164.963 223.78 163.835C222.564 162.708 221.956 160.906 221.956 158.43ZM235.25 154.607V153.904C235.25 150.579 236.29 147.927 238.37 145.95C240.45 143.958 243.196 142.961 246.609 142.961C249.979 142.961 252.593 143.914 254.454 145.818C256.329 147.708 257.266 150.3 257.266 153.596V155.75H239.402V151.904H250.323V151.619C250.337 150.564 250.022 149.685 249.378 148.982C248.748 148.279 247.811 147.927 246.565 147.927C245.174 147.927 244.119 148.433 243.401 149.443C242.684 150.454 242.325 151.736 242.325 153.289V154.783C242.325 156.584 242.713 157.998 243.489 159.023C244.266 160.034 245.401 160.54 246.895 160.54C247.964 160.54 248.865 160.305 249.598 159.836C250.345 159.353 250.938 158.752 251.377 158.035L257.002 160.21C256.314 161.851 255.135 163.154 253.465 164.121C251.795 165.088 249.634 165.571 246.983 165.571C243.277 165.571 240.391 164.583 238.326 162.605C236.275 160.627 235.25 157.961 235.25 154.607Z" fill="#282828"/>
</g>
<defs>
<clipPath id="clip0_9_2">
<rect width="300" height="300" fill="white"/>
</clipPath>
</defs>
</svg>
